<svg width="68" height="52" viewBox="0 0 68 52" fill="none" xmlns="http://www.w3.org/2000/svg">
<path d="M57.5662 4.35476C53.1569 2.33119 48.5042 0.886941 43.724 0.0580058C43.6807 0.0507122 43.6362 0.0570115 43.5966 0.0760376C43.557 0.0950638 43.5243 0.125882 43.503 0.164256C42.9037 1.22676 42.2407 2.61651 41.7775 3.70451C36.6248 2.92254 31.3837 2.92254 26.231 3.70451C25.7142 2.49249 25.1296 1.31054 24.48 0.164256C24.4582 0.126303 24.4254 0.0958391 24.386 0.0768741C24.3465 0.0579091 24.3022 0.0513313 24.259 0.0580058C19.4777 0.882506 14.824 2.32751 10.4167 4.35476C10.379 4.36915 10.3475 4.39619 10.3275 4.43126C1.51299 17.602 -0.905265 30.4498 0.280485 43.136C0.284735 43.1955 0.322985 43.255 0.369735 43.2933C5.50256 47.0954 11.2437 49.9983 17.3485 51.8783C17.3916 51.8919 17.4379 51.8914 17.4807 51.8768C17.5235 51.8623 17.5606 51.8345 17.5865 51.7975C18.8955 50.0125 20.06 48.1298 21.063 46.1493C21.0839 46.1085 21.091 46.062 21.0834 46.0168C21.0757 45.9716 21.0537 45.9301 21.0205 45.8985C20.9985 45.8778 20.9725 45.8618 20.944 45.8518C19.1129 45.148 17.3395 44.3026 15.64 43.323C15.5925 43.2961 15.5572 43.252 15.5414 43.1998C15.5256 43.1475 15.5304 43.0912 15.555 43.0425C15.5694 43.0109 15.5913 42.9832 15.6187 42.9618C15.9757 42.694 16.3327 42.4135 16.6727 42.133C16.7028 42.1089 16.7388 42.0933 16.777 42.0881C16.8152 42.0829 16.8541 42.0881 16.8895 42.1033C28.0202 47.1863 40.069 47.1863 51.0637 42.1033C51.1005 42.0874 51.1408 42.0817 51.1805 42.087C51.2201 42.0922 51.2576 42.1081 51.289 42.133C51.629 42.4135 51.986 42.694 52.343 42.9618C52.3719 42.9829 52.3952 43.0109 52.4106 43.0432C52.4261 43.0755 52.4333 43.1112 52.4316 43.1469C52.4299 43.1827 52.4194 43.2176 52.401 43.2483C52.3825 43.279 52.3568 43.3047 52.326 43.323C50.6303 44.3115 48.8547 45.156 47.0177 45.8475C46.9884 45.8581 46.9618 45.875 46.9398 45.8971C46.9178 45.9191 46.9008 45.9457 46.8902 45.975C46.8804 46.0034 46.8765 46.0335 46.8787 46.0634C46.8809 46.0934 46.8891 46.1226 46.903 46.1493C47.923 48.1255 49.0917 50.0125 50.3752 51.7975C50.4012 51.8345 50.4382 51.8623 50.481 51.8768C50.5238 51.8914 50.5701 51.8919 50.6132 51.8783C56.7282 50.0041 62.4787 47.1008 67.6175 43.2933C67.6432 43.2754 67.6646 43.252 67.6801 43.2248C67.6955 43.1976 67.7046 43.1672 67.7067 43.136C69.1262 28.4693 65.331 15.7278 57.6512 4.43551C57.6435 4.41685 57.6319 4.40003 57.6173 4.38612C57.6027 4.37221 57.5853 4.36153 57.5662 4.35476ZM22.7247 35.4095C19.3715 35.4095 16.6132 32.3325 16.6132 28.5585C16.6132 24.7803 19.3205 21.7033 22.7247 21.7033C26.1545 21.7033 28.8872 24.8058 28.8362 28.5585C28.8362 32.3325 26.129 35.4095 22.7247 35.4095ZM45.3177 35.4095C41.9687 35.4095 39.2062 32.3325 39.2062 28.5585C39.2062 24.7803 41.9135 21.7033 45.3177 21.7033C48.7475 21.7033 51.4845 24.8058 51.4292 28.5585C51.4292 32.3325 48.7475 35.4095 45.3177 35.4095Z" fill="white"/>
</svg>
