<svg width="100" height="101" viewBox="0 0 100 101" fill="none" xmlns="http://www.w3.org/2000/svg">
<g opacity="0.9">
<path d="M85.0919 38.3539L92.4634 51.0238C92.802 35.298 83.8798 20.2866 69.9154 13.0494L66.6674 18.6533C74.6129 22.6984 80.9788 29.9397 83.9356 38.3519H85.0919V38.3539Z" fill="white"/>
<path d="M33.1695 18.9136L29.8513 13.1568C15.9219 20.7203 7.09888 35.8101 7.36937 51.6619L14.8048 38.7814H16.1325C19.1018 30.3961 25.3334 23.1258 33.1695 18.9136Z" fill="white"/>
<path d="M28.9139 80.2681C41.1274 88.9775 57.8443 88.8268 70.2767 80.2681H78.7198V81.891C62.4262 96.9272 36.6116 96.6814 20.6318 81.3129V80.2681H28.9139Z" fill="white"/>
<path d="M50 100.565C77.5697 100.565 100 78.1351 100 50.5654C100 22.9957 77.5697 0.56543 50 0.56543C22.4303 0.56543 1.03491e-06 22.9957 1.03491e-06 50.5654C1.03491e-06 78.1351 22.4303 100.565 50 100.565ZM50 1.85389C76.8594 1.85389 98.7115 23.706 98.7115 50.5654C98.7115 77.4248 76.8594 99.277 50 99.277C23.1406 99.277 1.28846 77.4248 1.28846 50.5654C1.28846 23.706 23.1406 1.85389 50 1.85389Z" fill="white"/>
</g>
<path d="M22.9444 37.3505H38.0198L49.7088 17.1027L48.7404 15.4033L44.8338 22.1719L41.9265 17.1316L49.4404 4.12933L57.2228 17.6086L45.7712 37.4393L49.6324 44.119L57.1773 31.028L78.218 67.4104H86.0314L68.6454 37.3505H76.9213L98.3171 74.1644L74.7883 74.1789L57.4334 44.1211L49.6345 57.6457L41.8666 44.2119L24.555 74.2119L1.68281 74.2243L22.9444 37.3505ZM33.8302 44.6125H26.5538L13.3739 67.4248H20.6504L33.8302 44.6125Z" fill="white"/>
</svg>
