<svg width="65" height="61" viewBox="0 0 65 61" fill="none" xmlns="http://www.w3.org/2000/svg">
<path d="M61.6315 1L36.7035 19.4399L41.3514 8.56946L61.6315 1Z" fill="#E17726" stroke="#E17726" stroke-width="0.25" stroke-linecap="round" stroke-linejoin="round"/>
<path d="M4.14919 1L28.8495 19.5916L24.4293 8.58843L4.14919 1ZM52.6582 43.7418L46.0183 53.8724L60.2277 57.7804L64.2875 43.9695L52.6582 43.7418ZM1.51221 43.9695L5.55304 57.7804L19.7244 53.8724L13.1225 43.7418L1.51221 43.9695Z" fill="#E27625" stroke="#E27625" stroke-width="0.25" stroke-linecap="round" stroke-linejoin="round"/>
<path d="M18.9656 26.63L15.0197 32.5869L29.0582 33.2319L28.6029 18.112L18.9656 26.6489V26.63ZM46.8152 26.6489L37.0261 17.9222L36.7036 33.2319L50.7422 32.5869L46.8152 26.6489ZM19.7245 53.8724L28.2425 49.7747L20.9197 44.0833L19.7245 53.8724ZM37.5573 49.7557L46.0184 53.8724L44.8801 44.0644L37.5573 49.7557Z" fill="#E27625" stroke="#E27625" stroke-width="0.25" stroke-linecap="round" stroke-linejoin="round"/>
<path d="M46.0184 53.8724L37.5573 49.7746L38.2402 55.2762L38.1644 57.6096L46.0184 53.8724ZM19.7245 53.8724L27.6165 57.6096L27.5595 55.2762L28.2425 49.7746L19.7245 53.8724Z" fill="#D5BFB2" stroke="#D5BFB2" stroke-width="0.25" stroke-linecap="round" stroke-linejoin="round"/>
<path d="M27.7493 40.4218L20.73 38.373L25.7004 36.0964L27.7682 40.4218H27.7493ZM38.0126 40.4218L40.0994 36.0775L45.0888 38.354L38.0126 40.4408V40.4218Z" fill="#233447" stroke="#233447" stroke-width="0.25" stroke-linecap="round" stroke-linejoin="round"/>
<path d="M19.7245 53.8723L20.9576 43.7418L13.1226 43.9694L19.7245 53.8723ZM44.8232 43.7418L46.0184 53.8723L52.6583 43.9694L44.8232 43.7418ZM50.7612 32.5868L36.7226 33.2318L38.0126 40.4408L40.0994 36.0775L45.0888 38.354L50.7612 32.5868ZM20.73 38.373L25.7004 36.0964L27.7682 40.4218L29.0772 33.2128L15.0386 32.5868L20.73 38.373Z" fill="#CC6228" stroke="#CC6228" stroke-width="0.25" stroke-linecap="round" stroke-linejoin="round"/>
<path d="M15.0386 32.5868L20.9196 44.0643L20.7299 38.373L15.0386 32.5868ZM45.0887 38.373L44.8611 44.0643L50.7421 32.5868L45.0887 38.373ZM29.0772 33.2318L27.7492 40.4408L29.4186 48.9399L29.7981 37.728L29.0772 33.2318ZM36.7035 33.2318L36.0206 37.709L36.3621 48.9399L38.0125 40.4218L36.7035 33.2128V33.2318Z" fill="#E27525" stroke="#E27525" stroke-width="0.25" stroke-linecap="round" stroke-linejoin="round"/>
<path d="M38.0125 40.4219L36.3621 48.9399L37.5572 49.7747L44.8611 44.0833L45.0888 38.373L38.0125 40.4219ZM20.7299 38.373L20.9196 44.0644L28.2424 49.7557L29.4187 48.9399L27.7682 40.4219L20.7109 38.373H20.7299Z" fill="#F5841F" stroke="#F5841F" stroke-width="0.25" stroke-linecap="round" stroke-linejoin="round"/>
<path d="M38.1833 57.6097L38.2402 55.2762L37.5952 54.745H28.1856L27.5595 55.2762L27.6165 57.6097L19.7245 53.8724L22.4943 56.1489L28.0907 60H37.6711L43.2866 56.1299L46.0184 53.8724L38.1644 57.6097H38.1833Z" fill="#C0AC9D" stroke="#C0AC9D" stroke-width="0.25" stroke-linecap="round" stroke-linejoin="round"/>
<path d="M37.5572 49.7556L36.362 48.9399H29.4186L28.2424 49.7746L27.5594 55.2762L28.1855 54.745H37.5951L38.2402 55.2762L37.5572 49.7746V49.7556Z" fill="#161616" stroke="#161616" stroke-width="0.25" stroke-linecap="round" stroke-linejoin="round"/>
<path d="M62.6939 20.6351L64.7807 10.4855L61.6315 1L37.5383 18.8328L46.8151 26.6299L59.9052 30.4431L62.7888 27.0852L61.5367 26.1746L63.5286 24.3534L62.0109 23.1772L64.0029 21.6595L62.6749 20.6351H62.6939ZM1 10.4666L3.12476 20.6351L1.75884 21.6405L3.78875 23.1582L2.27106 24.3534L4.24405 26.1746L2.99196 27.0852L5.87556 30.4431L18.9656 26.6489L28.2424 18.8138L4.1492 1L1 10.4666Z" fill="#763E1A" stroke="#763E1A" stroke-width="0.25" stroke-linecap="round" stroke-linejoin="round"/>
<path d="M59.9051 30.4431L46.8151 26.6489L50.7611 32.5868L44.8801 44.0643L52.6582 43.9695H64.2875L59.9051 30.4431ZM18.9656 26.6299L5.87555 30.4431L1.51221 43.9695H13.1415L20.9196 44.0643L15.0386 32.5868L18.9846 26.6299H18.9656ZM36.7035 33.2318L37.5572 18.8138L41.3514 8.56946H24.4293L28.2235 18.8138L29.0772 33.2318L29.3997 37.747V48.9399H36.3621L36.4 37.747L36.7035 33.2318Z" fill="#F5841F" stroke="#F5841F" stroke-width="0.25" stroke-linecap="round" stroke-linejoin="round"/>
</svg>
